<?xml version="1.0" encoding="UTF-8"?><svg xmlns="http://www.w3.org/2000/svg" xmlns:xlink="http://www.w3.org/1999/xlink" viewBox="0 0 130 130"><defs><style>.cls-1,.cls-2,.cls-3,.cls-4,.cls-5,.cls-6{fill:none;}.cls-2{clip-path:url(#clippath-1);}.cls-3{isolation:isolate;}.cls-7{fill:#fff;}.cls-8{fill:#ccc;}.cls-9{fill:#1c5d67;}.cls-4{mix-blend-mode:multiply;}.cls-5{clip-path:url(#clippath);}.cls-6{opacity:.2;}</style><clipPath id="clippath"><path class="cls-1" d="m-37.74-363.64s37.47-16.98,118.93-16.98,324.53,72.24,370.87,72.24,148.43-61.54,238.07-62.28c53.44-.44,73.76,20.32,73.76,20.32,0,0,40.58-23.61,88.34-58.3,53.84-39.12,117.83-89.77,162.54-87.9,119.3,0,459.65,182.42,539.3,182.42,11.05,0,35.67,11.73,51.68,8.39,40.29-8.4,29.15-44.17,113.38-53.67,28.05-3.16,58.86-22.7,105.25-31.76,33.18-6.48,57.86,6.81,57.86,6.81l-3.54,214.45H-37.74v-193.74Z"/></clipPath><clipPath id="clippath-1"><path class="cls-1" d="m-36.26,364.87s37.46-16.97,118.89-16.97,324.42,72.22,370.74,72.22,148.38-61.52,237.99-62.26c53.43-.44,73.74,20.31,73.74,20.31,0,0,40.57-23.6,88.31-58.28,53.82-39.11,117.79-89.74,162.49-87.87,119.26,0,459.49,182.35,539.12,182.35,11.05,0,35.66,11.72,51.66,8.39,40.28-8.4,29.14-44.15,113.34-53.65,28.04-3.16,58.84-22.7,105.22-31.75,33.17-6.47,57.84,6.81,57.84,6.81l-3.54,214.38H-36.26v-193.68Z"/></clipPath><image id="image" width="1024" height="724" xlink:href="../../../../../../../../../../../../Users/jennywatercutter/Library/CloudStorage/OneDrive-GoToGalilee/Marketing and Design/GALILEE - design/PROJECTS/WEB/Galilee Website/Home/Home Page Images/istockphoto-1400377248-1024x1024_gray.jpg"/></defs><g class="cls-3"><g id="Layer_1"><g class="cls-4"><g class="cls-5"><rect class="cls-7" x="-37.74" y="-740.52" width="1920.79" height="1953.23"/><use class="cls-6" transform="translate(-37.91 -684.23) scale(1.88)" xlink:href="#image"/></g></g><path class="cls-8" d="m76.06,26.99h0,0m-8.01,1.9c-2.07,2.52-3.77,5.66-3.64,9.04.37,9.63,8.74,13.92,16.84,18.08,8.68,4.46,17.66,9.06,17.66,20.4,0,6.93-2.23,12.57-6.62,16.75-5.22,4.96-12.65,7.09-17.96,8.01-1.29.22-2.51.38-3.64.5,3.16-3.35,6.39-8.71,6.39-16.66,0-10.1-6.34-17.86-11.93-24.71-4.5-5.51-8.75-10.72-8.8-16.06-.05-6.42,3.09-11.23,9.32-14.31.79-.39,1.59-.73,2.37-1.03m7.88-4.93h0c-.23.01-22.74,1.66-22.6,20.29.05,6.41,4.63,12.02,9.48,17.96,5.53,6.77,11.24,13.77,11.24,22.79,0,13.36-10.38,18.35-10.62,18.47h0s0,0,0,0c0,0,0,0,0,0,0,0,0,0,0,0,0,0,0,0-.01,0-.02,0-.03.02-.05.03-.02.01-.05.03-.07.05-.02.01-.03.03-.05.04,0,0-.01,0-.02.01,0,0-.01.01-.02.02,0,0,0,0-.01.01,0,0,0,0,0,0,0,0,0,0,0,0,0,0,0,0-.01.01-.01.01-.02.03-.03.04-.02.02-.03.04-.05.07,0,.01-.02.03-.02.04,0,0,0,.02-.01.03,0,0-.01.02-.02.03,0,0,0,0,0,0,0,0,0,.01,0,.02,0,0,0,.01,0,.02,0,.02-.01.04-.02.06,0,.03-.01.05-.02.08,0,0,0,0,0,0,0,0,0,0,0,.01,0,.02,0,.03,0,.05,0,0,0,0,0,0,0,.01,0,.02,0,.03,0,0,0,.01,0,.02,0,0,0,0,0,.01,0,0,0,0,0,0,0,0,0,0,0,.01,0,0,0,.02,0,.03,0,0,0,.01,0,.02,0,.03,0,.06,0,.08h0s0,0,0,0c0,.03.02.06.02.09,0,0,0,.01,0,.02,0,0,0,0,0,.01,0,.01,0,.02.01.03,0,0,0,0,0,.01,0,0,0,0,0,.01,0,.01.01.02.02.03v.02s.02.02.03.03c.01.02.02.03.04.05,0,.01.02.02.03.04.01.02.03.04.04.05,0,0,0,0,0,0,0,0,.01,0,.01.01,0,0,.01.01.02.02,0,0,.02.02.03.02.01.01.03.03.04.04,0,0,0,0,.01,0,.04.02.07.05.11.07,0,0,0,0,0,0,0,0,.01,0,.02,0,0,0,0,0,.01,0,0,0,.01,0,.02,0,0,0,0,0,.01,0,.01,0,.03,0,.04.01.06.02.12.03.19.03.06,0,.54.03,1.35.03,1.86,0,5.48-.12,9.79-.86,5.73-.98,13.77-3.31,19.54-8.8,5.01-4.77,7.56-11.15,7.56-18.94,0-13.19-10.26-18.45-19.31-23.1-7.66-3.93-14.89-7.64-15.19-15.5-.25-6.35,8.88-12.33,8.97-12.39.07-.04.12-.1.17-.16,0-.01.02-.02.03-.03,0,0,0,0,0-.01,0,0,0,0,0-.01.04-.05.06-.11.09-.17,0-.01,0-.03.01-.04,0-.01,0-.02.01-.04,0,0,0-.01,0-.02.01-.05.02-.11.02-.16,0,0,0,0,0,0,0-.03,0-.06,0-.09,0,0,0-.02,0-.03,0-.04-.01-.07-.03-.1,0,0,0-.02,0-.03,0,0,0,0,0-.01-.01-.04-.03-.08-.05-.12,0,0,0-.01,0-.02,0,0,0,0,0,0,0,0,0-.02-.01-.02,0-.01-.02-.03-.03-.04,0,0-.01-.01-.02-.02-.04-.05-.08-.09-.12-.12,0,0-.02-.01-.03-.02-.07-.05-.15-.09-.23-.12-.01,0-.02,0-.03-.01-.07-.02-.14-.03-.21-.03-.01,0-.02,0-.03,0h0s-.01,0-.02,0h0Z"/><path class="cls-8" d="m65,16.97c-.84,0-1.52-.68-1.52-1.52v-2.06c0-.84.68-1.52,1.52-1.52s1.52.68,1.52,1.52v2.06c0,.84-.68,1.52-1.52,1.52Z"/><path class="cls-8" d="m65,8.69c-.84,0-1.52-.68-1.52-1.52V2.23c0-.84.68-1.52,1.52-1.52s1.52.68,1.52,1.52v4.94c0,.84-.68,1.52-1.52,1.52Z"/><path class="cls-8" d="m44.13,30.32c-.52,0-1.03-.27-1.31-.76l-3.12-5.4c-.42-.72-.17-1.65.55-2.07.72-.42,1.65-.17,2.07.55l3.12,5.4c.42.72.17,1.65-.55,2.07-.24.14-.5.2-.76.2Z"/><path class="cls-8" d="m36.11,16.44c-.52,0-1.03-.27-1.31-.76l-2.48-4.29c-.42-.72-.17-1.65.55-2.07.72-.42,1.65-.17,2.07.55l2.48,4.29c.42.72.17,1.65-.55,2.07-.24.14-.5.2-.76.2Z"/><path class="cls-8" d="m33.77,48.45c-.26,0-.52-.07-.76-.2l-5.88-3.4c-.72-.42-.97-1.35-.55-2.07.42-.73,1.35-.97,2.07-.55l5.88,3.4c.72.42.97,1.35.55,2.07-.28.49-.79.76-1.31.76Z"/><path class="cls-8" d="m21.01,41.08c-.26,0-.52-.07-.76-.2l-10.34-5.97c-.72-.42-.97-1.35-.55-2.07.42-.73,1.35-.97,2.07-.55l10.34,5.97c.72.42.97,1.35.55,2.07-.28.49-.79.76-1.31.76Z"/><path class="cls-8" d="m20.85,66.52h-.02l-2.87-.04c-.84-.01-1.51-.7-1.49-1.54.01-.83.69-1.49,1.51-1.49h.02l2.87.04c.84.01,1.51.7,1.49,1.54-.01.83-.69,1.49-1.51,1.49Z"/><path class="cls-8" d="m9.14,66.47H2.27c-.84,0-1.52-.68-1.52-1.52s.68-1.52,1.52-1.52h6.87c.84,0,1.52.68,1.52,1.52s-.68,1.52-1.52,1.52Z"/><path class="cls-8" d="m10.68,97.84c-.52,0-1.03-.27-1.31-.76-.42-.72-.17-1.65.55-2.07l6.71-3.87c.72-.42,1.65-.17,2.07.55.42.72.17,1.65-.55,2.07l-6.71,3.87c-.24.14-.5.2-.76.2Z"/><path class="cls-8" d="m119.32,97.84c-.26,0-.52-.07-.76-.2l-6.76-3.9c-.72-.42-.97-1.35-.55-2.07s1.35-.97,2.07-.55l6.76,3.9c.72.42.97,1.35.55,2.07-.28.49-.79.76-1.31.76Z"/><path class="cls-8" d="m127.73,66.47h-6.65c-.84,0-1.52-.68-1.52-1.52s.68-1.52,1.52-1.52h6.65c.84,0,1.52.68,1.52,1.52s-.68,1.52-1.52,1.52Z"/><path class="cls-8" d="m113.73,66.47h-2.91c-.84,0-1.52-.68-1.52-1.52s.68-1.52,1.52-1.52h2.91c.84,0,1.52.68,1.52,1.52s-.68,1.52-1.52,1.52Z"/><path class="cls-8" d="m99.17,46.75c-.52,0-1.03-.27-1.31-.76-.42-.72-.17-1.65.55-2.07l4.31-2.49c.72-.42,1.65-.17,2.07.55.42.72.17,1.65-.55,2.07l-4.31,2.49c-.24.14-.5.2-.76.2Z"/><path class="cls-8" d="m110.06,40.46c-.52,0-1.03-.27-1.31-.76-.42-.72-.17-1.65.55-2.07l9.26-5.35c.72-.42,1.65-.17,2.07.55.42.72.17,1.65-.55,2.07l-9.26,5.35c-.24.14-.5.2-.76.2Z"/><path class="cls-8" d="m86.01,30.08c-.26,0-.52-.07-.76-.2-.72-.42-.97-1.35-.55-2.07l3.94-6.82c.42-.73,1.35-.97,2.07-.55.72.42.97,1.35.55,2.07l-3.94,6.82c-.28.49-.79.76-1.31.76Z"/><path class="cls-8" d="m93.89,16.44c-.26,0-.52-.07-.76-.2-.72-.42-.97-1.35-.55-2.07l2.48-4.29c.42-.73,1.35-.97,2.07-.55.72.42.97,1.35.55,2.07l-2.48,4.29c-.28.49-.79.76-1.31.76Z"/><path class="cls-8" d="m52.98,22.21c-.67,0-1.28-.44-1.46-1.12l-4.42-16.27c-.22-.81.26-1.64,1.07-1.86.81-.22,1.64.26,1.86,1.07l4.42,16.27c.22.81-.26,1.64-1.07,1.86-.13.04-.27.05-.4.05Z"/><path class="cls-8" d="m32.45,34.15c-.39,0-.77-.15-1.07-.44l-11.96-11.88c-.59-.59-.6-1.55,0-2.14.59-.59,1.55-.6,2.14,0l11.96,11.88c.59.59.6,1.55,0,2.14-.3.3-.69.45-1.08.45Z"/><path class="cls-8" d="m20.65,54.75c-.13,0-.26-.02-.39-.05l-16.3-4.31c-.81-.21-1.29-1.04-1.08-1.85.21-.81,1.05-1.29,1.85-1.08l16.3,4.31c.81.21,1.29,1.04,1.08,1.85-.18.68-.79,1.13-1.46,1.13Z"/><path class="cls-8" d="m4.46,82.92c-.67,0-1.28-.44-1.46-1.12-.22-.81.26-1.64,1.07-1.86l12.92-3.51c.81-.22,1.64.26,1.86,1.07.22.81-.26,1.64-1.07,1.86l-12.92,3.51c-.13.04-.27.05-.4.05Z"/><path class="cls-8" d="m20.79,110.98c-.39,0-.77-.15-1.07-.44-.59-.59-.6-1.55,0-2.14l4.39-4.42c.59-.59,1.55-.6,2.14,0,.59.59.6,1.55,0,2.14l-4.39,4.42c-.3.3-.69.45-1.08.45Z"/><path class="cls-8" d="m109.51,110.68c-.39,0-.77-.15-1.07-.44l-6.24-6.2c-.59-.59-.6-1.55,0-2.14.59-.59,1.55-.6,2.14,0l6.24,6.2c.59.59.6,1.55,0,2.14-.3.3-.69.45-1.08.45Z"/><path class="cls-8" d="m125.65,82.5c-.13,0-.26-.02-.39-.05l-13.09-3.46c-.81-.21-1.29-1.04-1.08-1.85.21-.81,1.05-1.29,1.85-1.08l13.09,3.46c.81.21,1.29,1.04,1.08,1.85-.18.68-.79,1.13-1.46,1.13Z"/><path class="cls-8" d="m109.27,54.45c-.67,0-1.28-.44-1.46-1.12-.22-.81.26-1.64,1.07-1.86l16.27-4.42c.81-.22,1.64.26,1.86,1.07.22.81-.26,1.64-1.07,1.86l-16.27,4.42c-.13.04-.27.05-.4.05Z"/><path class="cls-8" d="m97.33,33.93c-.39,0-.77-.15-1.07-.44-.59-.59-.6-1.55,0-2.14l11.88-11.96c.59-.59,1.55-.6,2.14,0s.6,1.55,0,2.14l-11.88,11.96c-.3.3-.69.45-1.08.45Z"/><path class="cls-8" d="m77.91,17.63c-.13,0-.26-.02-.39-.05-.81-.21-1.29-1.04-1.08-1.85l3.12-11.8c.21-.81,1.05-1.29,1.85-1.08.81.21,1.29,1.04,1.08,1.85l-3.12,11.8c-.18.68-.79,1.13-1.46,1.13Z"/><path class="cls-8" d="m48.17,127.09c-.13,0-.27-.02-.4-.05-.81-.22-1.28-1.05-1.07-1.86l2.86-10.52c.22-.81,1.05-1.28,1.86-1.07.81.22,1.28,1.05,1.07,1.86l-2.86,10.52c-.18.67-.8,1.12-1.46,1.12Z"/><path class="cls-8" d="m80.64,127.2c-.67,0-1.28-.45-1.46-1.13l-3.02-11.42c-.21-.81.27-1.64,1.08-1.85.81-.21,1.64.27,1.85,1.08l3.02,11.42c.21.81-.27,1.64-1.08,1.85-.13.03-.26.05-.39.05Z"/><path class="cls-8" d="m64.66,129.28c-.84,0-1.52-.68-1.52-1.52v-11.21c0-.84.68-1.52,1.52-1.52s1.52.68,1.52,1.52v11.21c0,.84-.68,1.52-1.52,1.52Z"/><path class="cls-8" d="m33.28,120.88c-.26,0-.52-.07-.76-.2-.72-.42-.97-1.35-.55-2.07l4.09-7.09c.42-.73,1.35-.97,2.07-.55.72.42.97,1.35.55,2.07l-4.09,7.09c-.28.49-.79.76-1.31.76Z"/><path class="cls-8" d="m96.03,120.88c-.52,0-1.03-.27-1.31-.76l-4.97-8.61c-.42-.72-.17-1.65.55-2.07.72-.42,1.65-.17,2.07.55l4.97,8.61c.42.72.17,1.65-.55,2.07-.24.14-.5.2-.76.2Z"/><path class="cls-9" d="m50.43,49.19h0,0m-2.16,6.24c.09.18.18.35.26.5,2.67,4.66,5.59,8.41,8.42,12.04,4.74,6.09,8.48,10.89,8.48,16.99,0,7.77-6.56,16.16-17.16,16.16s-17.16-8.39-17.16-16.16c0-6.1,3.74-10.91,8.48-17,2.82-3.63,5.74-7.38,8.42-12.03.09-.15.17-.32.26-.5m0-7.63c-.35,0-.66.24-.76.58-.35,1.26-1.42,4.82-2.13,6.05-2.57,4.48-5.42,8.14-8.18,11.68-4.89,6.29-9.12,11.71-9.12,18.86,0,9.23,7.72,19.19,20.19,19.19s20.19-9.96,20.19-19.19c0-7.14-4.23-12.57-9.12-18.86-2.76-3.54-5.61-7.21-8.18-11.68-.71-1.23-1.78-4.78-2.13-6.05-.1-.34-.41-.58-.76-.58h0Z"/><path class="cls-9" d="m39.31,76.88h0,0m-1.29-1.79s-.06,0-.1,0c-.21.03-.4.13-.53.3-.13.17-3.13,4.12-3.13,8.78s3.58,8.35,3.73,8.51c.15.15.35.23.56.23.17,0,.34-.05.48-.16.31-.24.4-.67.21-1.02-4.83-8.54,1.27-13.2,1.53-13.39.2-.14.32-.37.32-.62,0-.25-.1-.48-.3-.63l-2.29-1.84c-.14-.11-.31-.17-.49-.17h0Z"/><g class="cls-4"><g class="cls-2"><rect class="cls-7" x="-36.26" y="-11.88" width="1920.14" height="1952.56"/><use class="cls-6" transform="translate(-41.07 38.16) scale(1.88)" xlink:href="#image"/></g></g></g></g></svg>