<?xml version="1.0" encoding="UTF-8"?><svg id="Layer_1" xmlns="http://www.w3.org/2000/svg" xmlns:xlink="http://www.w3.org/1999/xlink" viewBox="0 0 44 44"><defs><style>.cls-1,.cls-2,.cls-3,.cls-4{fill:none;}.cls-5{fill:url(#linear-gradient);}.cls-6{filter:url(#luminosity-noclip);}.cls-7{fill:#d5bf98;}.cls-2{stroke:#1c5d67;stroke-linecap:round;stroke-linejoin:round;stroke-width:1.56px;}.cls-3{mask:url(#mask);}.cls-4{clip-path:url(#clippath);}</style><clipPath id="clippath"><rect class="cls-1" x="-834.36" y="-882.96" width="1924.9" height="706.23"/></clipPath><filter id="luminosity-noclip" x="-840.57" y="-1059.19" width="1932.78" height="1402.05" color-interpolation-filters="sRGB" filterUnits="userSpaceOnUse"><feFlood flood-color="#fff" result="bg"/><feBlend in="SourceGraphic" in2="bg"/></filter><linearGradient id="linear-gradient" x1="126.42" y1="212.09" x2="126.42" y2="-1216.01" gradientUnits="userSpaceOnUse"><stop offset="0" stop-color="#fff"/><stop offset="1" stop-color="#000"/></linearGradient><mask id="mask" x="-840.57" y="-1059.19" width="1932.78" height="1402.05" maskUnits="userSpaceOnUse"><g class="cls-6"><rect class="cls-5" x="-836.03" y="-1059.19" width="1924.9" height="1278.92"/></g></mask></defs><g class="cls-4"><g class="cls-3"><image width="3248" height="2325" transform="translate(-840.57 -1040.66) scale(.6)" xlink:href="icon_Witness_44px-191.png"/></g></g><path class="cls-7" d="m12.14,26.33c2.26.06,5.48-2.47,5.48-2.47,0,0-3.64-.45-7.44-5.17-3.8-4.72-7.33-3.53-7.33-3.53,8.39-11.01,21.75-4.06,21.75-4.06C29.57-.12,36.89,6.47,36.89,6.47c0,0-3.77,3.45-3.77,5.54s1.63,3.27,1.49,8.25c-.16,6.16-9.13,12.3-15.32,11.67-3.37-.34-3.62-.68-5.4-.39-1.17.19-6.87,3.13-6.87,3.13,0,0-.57-4.57-1.33-10.82,0,0,1.09,2.34,6.45,2.47Z"/><path class="cls-2" d="m15.63,30.33c2.26.06,5.48-2.47,5.48-2.47,0,0-3.64-.45-7.44-5.17-3.8-4.72-7.33-3.53-7.33-3.53,8.39-11.01,21.75-4.06,21.75-4.06,4.97-11.21,12.29-4.63,12.29-4.63,0,0-3.77,3.45-3.77,5.54s1.63,3.27,1.49,8.25c-.16,6.16-9.13,12.3-15.32,11.67-3.37-.34-3.62-.68-5.4-.39-1.17.19-6.87,3.13-6.87,3.13,0,0-.57-4.57-1.33-10.82,0,0,1.09,2.34,6.45,2.47Z"/></svg>