<?xml version="1.0" encoding="UTF-8"?><svg id="Layer_1" xmlns="http://www.w3.org/2000/svg" xmlns:xlink="http://www.w3.org/1999/xlink" viewBox="0 0 44 44"><defs><style>.cls-1,.cls-2,.cls-3,.cls-4{fill:none;}.cls-5{fill:url(#linear-gradient);}.cls-6{filter:url(#luminosity-noclip);}.cls-7{fill:#d5bf98;}.cls-2{stroke:#1c5d67;stroke-linecap:round;stroke-linejoin:round;stroke-width:1.6px;}.cls-3{mask:url(#mask);}.cls-4{clip-path:url(#clippath);}</style><clipPath id="clippath"><rect class="cls-1" x="-3.08" y="-882.99" width="1924.9" height="706.23"/></clipPath><filter id="luminosity-noclip" x="-9.28" y="-1059.22" width="1932.78" height="1402.05" color-interpolation-filters="sRGB" filterUnits="userSpaceOnUse"><feFlood flood-color="#fff" result="bg"/><feBlend in="SourceGraphic" in2="bg"/></filter><linearGradient id="linear-gradient" x1="957.71" y1="212.06" x2="957.71" y2="-1216.04" gradientUnits="userSpaceOnUse"><stop offset="0" stop-color="#fff"/><stop offset="1" stop-color="#000"/></linearGradient><mask id="mask" x="-9.28" y="-1059.22" width="1932.78" height="1402.05" maskUnits="userSpaceOnUse"><g class="cls-6"><rect class="cls-5" x="-4.74" y="-1059.22" width="1924.9" height="1278.92"/></g></mask></defs><g class="cls-4"><g class="cls-3"><image width="3248" height="2325" transform="translate(-9.28 -1040.7) scale(.6)" xlink:href="icon_Witness_44px-161.png"/></g></g><rect class="cls-7" x="4.56" y=".77" width="34.11" height="14.76" rx="2.97" ry="2.97"/><rect class="cls-7" x="14.53" y="20.93" width="24.66" height="14.36" rx="2.49" ry="2.49"/><path class="cls-2" d="m37.8,42.43v-4.6h1.39c1.85,0,3.34-1.5,3.34-3.34v-8.11c0-1.85-1.5-3.34-3.34-3.34h-18.09c-1.85,0-3.34,1.5-3.34,3.34v8.11c0,1.85,1.5,3.34,3.34,3.34h11.51l5.19,4.6Z"/><line class="cls-2" x1="38.77" y1="30.92" x2="34.02" y2="30.92"/><line class="cls-2" x1="30.13" y1="30.92" x2="21.6" y2="30.92"/><path class="cls-2" d="m6.2,22.68v-4.6s-1.39,0-1.39,0c-1.85,0-3.34-1.5-3.34-3.34V6.62c0-1.85,1.5-3.34,3.34-3.34h27.64c1.85,0,3.34,1.5,3.34,3.34v8.11c0,1.85-1.5,3.34-3.34,3.34H11.39s-5.19,4.6-5.19,4.6Z"/><line class="cls-2" x1="6.52" y1="10.85" x2="22.6" y2="10.85"/><line class="cls-2" x1="27.15" y1="10.85" x2="31.82" y2="10.85"/></svg>