<?xml version="1.0" encoding="UTF-8"?><svg id="Layer_1" xmlns="http://www.w3.org/2000/svg" xmlns:xlink="http://www.w3.org/1999/xlink" viewBox="0 0 44 44"><defs><style>.cls-1,.cls-2,.cls-3,.cls-4{fill:none;}.cls-5{fill:url(#linear-gradient);}.cls-6{filter:url(#luminosity-noclip);}.cls-7{fill:#d5bf98;}.cls-2{stroke:#1c5d67;stroke-linecap:round;stroke-linejoin:round;stroke-width:1.56px;}.cls-3{mask:url(#mask);}.cls-4{clip-path:url(#clippath);}</style><clipPath id="clippath"><rect class="cls-1" x="-281.55" y="-883.29" width="1924.9" height="706.23"/></clipPath><filter id="luminosity-noclip" x="-287.76" y="-1059.52" width="1932.78" height="1402.05" color-interpolation-filters="sRGB" filterUnits="userSpaceOnUse"><feFlood flood-color="#fff" result="bg"/><feBlend in="SourceGraphic" in2="bg"/></filter><linearGradient id="linear-gradient" x1="679.23" y1="211.77" x2="679.23" y2="-1216.34" gradientUnits="userSpaceOnUse"><stop offset="0" stop-color="#fff"/><stop offset="1" stop-color="#000"/></linearGradient><mask id="mask" x="-287.76" y="-1059.52" width="1932.78" height="1402.05" maskUnits="userSpaceOnUse"><g class="cls-6"><rect class="cls-5" x="-283.22" y="-1059.52" width="1924.9" height="1278.92"/></g></mask></defs><g class="cls-4"><g class="cls-3"><image width="3248" height="2325" transform="translate(-287.76 -1040.99) scale(.6)" xlink:href="icon_Witness_44px-171.png"/></g></g><path class="cls-7" d="m4.32,20.95s-3.6-.54-3.6-4.36,4.26-3.87,4.26-3.87c0,0,.5-6.77,7.65-8.6,7.15-1.83,9.64,2.16,9.64,2.16,0,0,7.7-5.32,13.63,1.91,6.74,8.22-1,12.76-1,12.76,0,0,0,4.2-5.82,4.74-5.82.54-6.98-2.28-6.98-2.28,0,0-4.16,3.98-11.14,3.49-5.42-.38-6.65-5.95-6.65-5.95Z"/><path class="cls-2" d="m8.15,24.29s-3.6-.54-3.6-4.36,4.26-3.87,4.26-3.87c0,0,.5-6.77,7.65-8.6,7.15-1.83,9.64,2.16,9.64,2.16,0,0,7.7-5.32,13.63,1.91,6.74,8.22-1,12.76-1,12.76,0,0,0,4.2-5.82,4.74-5.82.54-6.98-2.28-6.98-2.28,0,0-4.16,3.98-11.14,3.49-5.42-.38-6.65-5.95-6.65-5.95Z"/><path class="cls-2" d="m18.56,38.27s-.79-.12-.79-.95.93-.84.93-.84c0,0,.11-1.48,1.67-1.88,1.56-.4,2.11.47,2.11.47,0,0,1.49-.98,2.98.42,1.49,1.4-.22,2.79-.22,2.79,0,0,0,.92-1.27,1.04-1.27.12-1.53-.5-1.53-.5,0,0-.91.87-2.43.76-1.18-.08-1.45-1.3-1.45-1.3Z"/></svg>