<?xml version="1.0" encoding="UTF-8"?><svg xmlns="http://www.w3.org/2000/svg" xmlns:xlink="http://www.w3.org/1999/xlink" viewBox="0 0 60 60"><defs><style>.cls-1,.cls-2,.cls-3,.cls-4,.cls-5,.cls-6,.cls-7{fill:none;}.cls-2{clip-path:url(#clippath-1);}.cls-3{isolation:isolate;}.cls-8{fill:#fff;}.cls-9{fill:#d7c29b;}.cls-10{fill:#1c5d67;}.cls-4{mix-blend-mode:multiply;}.cls-5{stroke:#1c5d67;stroke-linecap:round;stroke-linejoin:round;stroke-width:1.36px;}.cls-6{clip-path:url(#clippath);}.cls-7{opacity:.2;}</style><clipPath id="clippath"><path class="cls-1" d="m-427.54-1048.3s37.47-16.98,118.93-16.98S15.92-993.04,62.26-993.04s148.43-61.54,238.07-62.28c53.44-.44,73.76,20.32,73.76,20.32,0,0,40.58-23.61,88.34-58.3,53.84-39.12,117.83-89.77,162.54-87.9,119.3,0,459.65,182.42,539.3,182.42,11.05,0,35.67,11.73,51.68,8.39,40.29-8.4,29.15-44.17,113.38-53.67,28.05-3.16,58.86-22.7,105.25-31.76,33.18-6.48,57.86,6.81,57.86,6.81l-3.54,214.45H-427.54v-193.74Z"/></clipPath><clipPath id="clippath-1"><path class="cls-1" d="m-426.07-319.79s37.46-16.97,118.89-16.97S17.24-264.55,63.56-264.55s148.38-61.52,237.99-62.26c53.43-.44,73.74,20.31,73.74,20.31,0,0,40.57-23.6,88.31-58.28,53.82-39.11,117.79-89.74,162.49-87.87,119.26,0,459.49,182.35,539.12,182.35,11.05,0,35.66,11.72,51.66,8.39,40.28-8.4,29.14-44.15,113.34-53.65,28.04-3.16,58.84-22.7,105.22-31.75,33.17-6.47,57.84,6.81,57.84,6.81l-3.54,214.38H-426.07v-193.68Z"/></clipPath></defs><g class="cls-3"><g id="Layer_1"><g class="cls-4"><g class="cls-6"><rect class="cls-8" x="-427.54" y="-1425.18" width="1920.79" height="1953.23"/></g></g><g class="cls-4"><g class="cls-2"><rect class="cls-8" x="-426.07" y="-696.54" width="1920.14" height="1952.56"/><image class="cls-7" width="1024" height="724" transform="translate(-430.88 -646.5) scale(1.88)" xlink:href="../../../../../../../../../../../../Users/jennywatercutter/Library/CloudStorage/OneDrive-GoToGalilee/Marketing and Design/GALILEE - design/PROJECTS/WEB/Galilee Website/Home/Home Page Images/istockphoto-1400377248-1024x1024_gray.jpg"/></g></g><circle class="cls-9" cx="31.78" cy="25.13" r="4.59"/><path class="cls-9" d="m20,55.32v-12.69c0-3.98,3.23-7.21,7.21-7.21s7.21,3.23,7.21,7.21v12.6l-14.42.1Z"/><path class="cls-5" d="m3.65,43.59c0,.73.06.73.06,1.46s-.28.73-.28,1.46c0,.73-.06.73-.06,1.46s.36.73.36,1.46-.32.73-.32,1.46-.08.73-.08,1.46.43.73.43,1.46-.2.73-.2,1.46.03.73.03,1.47-.55.93-.04,1.45.7-.06,1.41-.06.71.26,1.42.26.71-.23,1.42-.23.71.05,1.42.05.71-.2,1.42-.2.71.22,1.42.22.71-.21,1.42-.21.71-.02,1.43-.02.71.33,1.42.33.71-.22,1.42-.22.71.2,1.42.2.71.1,1.42.1.71-.38,1.42-.38.71.08,1.43.08.71-.03,1.43-.03.71.27,1.43.27.71.04,1.42.04.71.04,1.43.04.71-.2,1.43-.2.71-.02,1.43-.02.71-.09,1.43-.09.71.06,1.43.06.71-.21,1.43-.21.71.44,1.43.44.71-.01,1.43-.01.71-.03,1.43-.03.71-.06,1.43-.06.71-.23,1.43-.23.71.01,1.43.01.71.31,1.43.31.71-.33,1.43-.33.71-.14,1.43-.14.72.39,1.43.39.71-.4,1.43-.4.72.36,1.43.36.72.09,1.43.09.89.28,1.39-.23c.51-.52.24-.68.24-1.41s-.38-.73-.38-1.46.21-.73.21-1.46c0-.73-.16-.73-.16-1.46s.15-.73.15-1.46-.17-.73-.17-1.46.33-.73.33-1.46-.3-.73-.3-1.46.35-.73.35-1.47-.46-.73-.46-1.47"/><path class="cls-5" d="m47.41,25.72c0,.71.01.71.01,1.41s-.21.7-.21,1.41.07.7.07,1.41.11.7.11,1.41-.14.71-.14,1.41.17.71.17,1.41-.16.7-.16,1.41.05.71.05,1.41-.05.71-.05,1.41-.11.71-.11,1.41c0,.71.15.71.15,1.41s.12.71.12,1.41-.23.71-.23,1.41.23.7.23,1.41-.02.7-.02,1.41-.28.71-.28,1.41.05.71.05,1.41.25.71.25,1.41-.1.71-.1,1.42.05.71.05,1.41-.21.71-.21,1.42.05.71.05,1.42.06.71.06,1.42"/><path class="cls-5" d="m12.63,25.72c0,.71,0,.71,0,1.41s-.09.7-.09,1.41.02.7.02,1.41c0,.7.05.7.05,1.41s.03.71.03,1.41.2.71.2,1.41-.12.7-.12,1.41-.11.71-.11,1.41,0,.71,0,1.41c0,.71.22.71.22,1.41s-.25.71-.25,1.41,0,.71,0,1.41.16.71.16,1.41.1.7.1,1.41-.05.7-.05,1.41,0,.71,0,1.41-.23.71-.23,1.41.08.71.08,1.41-.05.71-.05,1.42.04.71.04,1.41-.04.71-.04,1.42-.04.71-.04,1.42,0,.71,0,1.42"/><path class="cls-10" d="m53.59,47.07c-.6.6-1.1.6-1.7,0s-.6-1.1,0-1.7.93-.36,1.69,0c.82.39.6,1.09,0,1.69Z"/><path class="cls-10" d="m53.59,50.74c-.6.6-1.1.61-1.7,0s-.6-1.1,0-1.7c.6-.6.94-.36,1.7,0,.81.39.59,1.1,0,1.69Z"/><path class="cls-10" d="m53.58,54.41c-.6.6-1.09.61-1.69,0s-.59-1.09,0-1.69c.6-.6.93-.37,1.69,0,.81.39.59,1.1,0,1.7Z"/><path class="cls-10" d="m8.12,47.06c-.6.6-1.09.6-1.69,0s-.6-1.09,0-1.69.93-.36,1.69,0c.81.39.6,1.09,0,1.69Z"/><path class="cls-10" d="m8.13,50.74c-.6.6-1.1.59-1.7,0-.6-.6-.6-1.09,0-1.69s.92-.36,1.69,0c.82.39.61,1.09,0,1.69Z"/><path class="cls-10" d="m8.13,54.41c-.6.6-1.1.6-1.69,0s-.6-1.09,0-1.69c.6-.6.93-.37,1.7,0,.82.39.6,1.1,0,1.7Z"/><path class="cls-5" d="m22.65,58.2c0-.69.04-.69.04-1.37s-.02-.69-.02-1.38.07-.69.07-1.37.03-.69.03-1.38-.11-.69-.11-1.38.14-.69.14-1.37-.13-.69-.13-1.38.04-.69.04-1.38-.07-.69-.07-1.38c0-.15.03-.15.03-.31,0-.48.03-.96.12-1.42s.36-.88.54-1.31.32-.9.58-1.29.58-.75.92-1.08.74-.58,1.13-.84.8-.46,1.24-.64.86-.37,1.33-.46.92-.08,1.4-.08.95-.03,1.41.06.93.21,1.36.38.83.44,1.22.71.77.54,1.11.88.64.7.9,1.09.45.82.63,1.26.38.86.47,1.33.09.93.09,1.41q0,.13,0,.27c0,.68-.04.68-.04,1.36s.09.68.09,1.37.05.68.05,1.37-.14.68-.14,1.37-.01.69-.01,1.37.04.68.04,1.37.04.69.04,1.37-.03.69-.03,1.37.11.69.11,1.37"/><path class="cls-5" d="m29.93,38.86c0,.73.07.73.07,1.47s.07.73.07,1.47-.02.73-.02,1.47-.1.73-.1,1.47.15.73.15,1.47,0,.74,0,1.47-.16.73-.16,1.47.13.73.13,1.47-.02.74-.02,1.47-.09.73-.09,1.47.12.74.12,1.47-.16.74-.16,1.48.07.74.07,1.48"/><path class="cls-5" d="m18.1,31.49c0,.55-.01.55-.01,1.1s.01.55.01,1.1"/><path class="cls-5" d="m22.65,31.49c0,.55.01.55.01,1.1s0,.55,0,1.1"/><path class="cls-5" d="m31.78,31.49c0,.55,0,.55,0,1.1s0,.55,0,1.1"/><path class="cls-5" d="m36.35,31.49c0,.55-.02.55-.02,1.1s.02.55.02,1.1"/><path class="cls-5" d="m40.9,31.49c0,.55,0,.55,0,1.1s0,.55,0,1.1"/><path class="cls-5" d="m27.21,31.49c0,.55,0,.55,0,1.1s0,.55,0,1.1"/><path class="cls-5" d="m34.63,22.61c0,.5-.11.97-.25,1.42s-.39.88-.67,1.26-.61.74-1,1.02-.82.49-1.28.64-.92.23-1.41.23-.96-.1-1.41-.24-.93-.3-1.32-.58-.71-.66-.99-1.05-.5-.82-.65-1.28-.2-.92-.2-1.42.05-.97.2-1.42.38-.88.66-1.27.6-.77.98-1.05.84-.45,1.31-.6.92-.26,1.41-.26.97.1,1.42.25.91.35,1.29.63.73.63,1.01,1.02.49.83.64,1.29.26.92.26,1.42Z"/><path class="cls-5" d="m30,18.07c0,.76.02.76.02,1.52s0,.76,0,1.52,0,.76,0,1.52.03.76.03,1.52-.05.76-.05,1.52,0,.76,0,1.52"/><path class="cls-5" d="m25.44,22.6c.76,0,.76.07,1.52.07s.76-.03,1.52-.03.76-.04,1.52-.04.76.06,1.52.06.76-.02,1.52-.02.76-.01,1.52-.01"/><path class="cls-5" d="m30.04,1.54c0,.76-.07.76-.07,1.52s.04.76.04,1.52-.03.76-.03,1.52c0,.76.02.76.02,1.52s-.03.76-.03,1.52.08.76.08,1.52"/><path class="cls-5" d="m25.44,6.08c.76,0,.76.03,1.52.03s.76-.02,1.52-.02.76-.03,1.52-.03.76.06,1.52.06.76-.06,1.52-.06.76.05,1.52.05"/><path class="cls-5" d="m7.84,29.27c.55-.47.51-.52,1.06-.99s.79-.19,1.35-.66.54-.48,1.09-.95.33-.73.88-1.2.69-.31,1.24-.78.51-.52,1.06-.99.44-.6.99-1.07.7-.3,1.25-.76.47-.56,1.02-1.03.5-.53,1.06-1,.77-.21,1.32-.68.51-.52,1.06-.99.4-.66.95-1.13.57-.45,1.12-.92.68-.32,1.23-.79.49-.54,1.04-1.01.49-.54,1.05-1.01.63-.38,1.19-.86.63-.39,1.19-.86.29-.88,1.02-.89.41.46.96.93.76.22,1.32.69.54.48,1.09.95.37.68.92,1.15.61.4,1.16.87.71.29,1.26.76.43.62.98,1.09.53.49,1.08.96.64.37,1.19.84.53.49,1.09.96c.55.47.48.56,1.03,1.03s.68.32,1.23.79c.55.47.39.66.94,1.13s.53.5,1.08.97.6.41,1.16.88.67.33,1.22.8.44.61.99,1.08c.55.47.7.3,1.25.77s.45.6,1.01,1.07.71.29,1.27.76"/><path class="cls-5" d="m47.29,37.6c.61.39.63.36,1.24.75s.59.43,1.2.82.62.38,1.23.77.63.37,1.24.76.58.44,1.19.84.61.4,1.22.79.63.37,1.24.76.64.35,1.26.74.62.39,1.23.78"/><path class="cls-5" d="m12.71,37.63c-.61.39-.63.36-1.24.75s-.59.43-1.2.82-.65.33-1.26.72-.61.4-1.22.79-.59.43-1.2.82-.59.42-1.21.81-.65.33-1.27.72c-.62.39-.62.39-1.23.78s-.59.43-1.2.83"/></g></g></svg>