<?xml version="1.0" encoding="UTF-8"?><svg xmlns="http://www.w3.org/2000/svg" xmlns:xlink="http://www.w3.org/1999/xlink" viewBox="0 0 60 60"><defs><style>.cls-1,.cls-2,.cls-3,.cls-4,.cls-5,.cls-6,.cls-7,.cls-8,.cls-9{fill:none;}.cls-2{clip-path:url(#clippath-1);}.cls-3{isolation:isolate;}.cls-10{fill:#fff;}.cls-11{fill:#d7c29b;}.cls-4{mix-blend-mode:multiply;}.cls-5{stroke-width:1.36px;}.cls-5,.cls-6,.cls-7{stroke:#1c5d67;stroke-linecap:round;stroke-linejoin:round;}.cls-6{stroke-width:1.36px;}.cls-7{stroke-width:1.33px;}.cls-8{clip-path:url(#clippath);}.cls-9{opacity:.2;}</style><clipPath id="clippath"><path class="cls-1" d="m-19.69-1048.3s37.47-16.98,118.93-16.98,324.53,72.24,370.87,72.24,148.43-61.54,238.07-62.28c53.44-.44,73.76,20.32,73.76,20.32,0,0,40.58-23.61,88.34-58.3,53.84-39.12,117.83-89.77,162.54-87.9,119.3,0,459.65,182.42,539.3,182.42,11.05,0,35.67,11.73,51.68,8.39,40.29-8.4,29.15-44.17,113.38-53.67,28.05-3.16,58.86-22.7,105.25-31.76,33.18-6.48,57.86,6.81,57.86,6.81l-3.54,214.45H-19.69v-193.74Z"/></clipPath><clipPath id="clippath-1"><path class="cls-1" d="m-18.22-319.79s37.46-16.97,118.89-16.97,324.42,72.22,370.74,72.22,148.38-61.52,237.99-62.26c53.43-.44,73.74,20.31,73.74,20.31,0,0,40.57-23.6,88.31-58.28,53.82-39.11,117.79-89.74,162.49-87.87,119.26,0,459.49,182.35,539.12,182.35,11.05,0,35.66,11.72,51.66,8.39,40.28-8.4,29.14-44.15,113.34-53.65,28.04-3.16,58.84-22.7,105.22-31.75,33.17-6.47,57.84,6.81,57.84,6.81l-3.54,214.38H-18.22v-193.68Z"/></clipPath></defs><g class="cls-3"><g id="Layer_1"><g class="cls-4"><g class="cls-8"><rect class="cls-10" x="-19.69" y="-1425.18" width="1920.79" height="1953.23"/></g></g><g class="cls-4"><g class="cls-2"><rect class="cls-10" x="-18.22" y="-696.54" width="1920.14" height="1952.56"/><image class="cls-9" width="1024" height="724" transform="translate(-23.03 -646.5) scale(1.88)" xlink:href="../../../../../../../../../../../../Users/jennywatercutter/Library/CloudStorage/OneDrive-GoToGalilee/Marketing and Design/GALILEE - design/PROJECTS/WEB/Galilee Website/Home/Home Page Images/istockphoto-1400377248-1024x1024_gray.jpg"/></g></g><rect class="cls-11" x="17.23" y="4.38" width="26.26" height="11.36" rx="2.29" ry="2.29"/><rect class="cls-11" x="19.93" y="17.26" width="19.51" height="11.36" rx="1.97" ry="1.97"/><path class="cls-6" d="m15.9,56.5c-.71,0-.71-.07-1.42-.07s-.71-.02-1.42-.02-.71.09-1.42.09-.71-.08-1.42-.08-.71.07-1.42.07-.71,0-1.43,0c-.71,0-.71-.11-1.43-.11-.45,0-.82-.18-1.18-.39s-.67-.48-.89-.85-.46-.75-.46-1.19c0-.62,0-.62,0-1.25s.19-.62.19-1.25c0-.75-.11-.75-.11-1.5s.08-.75.08-1.51-.12-.75-.12-1.5,0-.75,0-1.5c0-.75.02-.75.02-1.51s-.07-.75-.07-1.5.1-.75.1-1.51.05-.76.05-1.51-.05-.76-.05-1.51c0-.66-.07-.58.18-1.31.13-.37.39-.74.68-1.14.24-.33.57-.6.96-.88.32-.24.62-.61,1.08-.79.38-.14.82-.27,1.3-.35.4-.06.86-.09,1.34-.09.71,0,.61.05,1.42.22.42.09.87.29,1.34.49.43.17.87.37,1.25.67s.64.67.9,1.09c.23.38.43.87.52,1.38.77.23.83-.13,1.63-.13s.8.09,1.6.09.8.05,1.61.05.8.01,1.61.01.79-.19,1.58-.16.85.07,1.42.58c.32.29.44.78.44,1.42,0,.54-.07,1.09-.42,1.44s-.9.5-1.44.5c-.7,0-.7-.02-1.4-.02s-.7-.08-1.4-.08-.7.16-1.4.16-.7.02-1.4.02-.7-.18-1.4-.18c-.7,0-.7.08-1.41.08s-.7.07-1.41.07-.7.03-1.41.03c-.45,0-.92-.1-1.28-.3s-.61-.63-.83-1-.39-.77-.39-1.22c0-.17.02-.17.02-.33"/><path class="cls-6" d="m20.93,41q0-.69,0-1.38c0-.69,0-.69,0-1.38s0-.69,0-1.38"/><path class="cls-6" d="m14.55,51.66c0-.68-.08-.68-.08-1.36s.09-.68.09-1.36-.05-.68-.05-1.36.05-.68.05-1.36-.06-.68-.06-1.36-.04-.68-.04-1.36.03-.68.03-1.36,0-.68,0-1.36"/><path class="cls-6" d="m21.14,57.01c0-.77-.06-.77-.06-1.54s-.06-.77-.06-1.54c0-.45-.1-.84-.31-1.2s-.51-.66-.88-.87-.75-.34-1.19-.34c-.69,0-.69-.07-1.38-.07s-.69.04-1.37.04-.69.02-1.37.02-.69-.07-1.38-.07-.69,0-1.37,0-.69.06-1.38.06-.69.02-1.38.02-.69.02-1.38.02-.69-.09-1.38-.09-.69.02-1.38.02-.69-.07-1.38-.07"/><path class="cls-7" d="m4.23,28.65c0,.52.14,1,.29,1.47s.32.97.61,1.37.71.71,1.12,1,.84.52,1.32.68.95.22,1.47.22,1.02-.03,1.48-.18.97-.34,1.37-.63.69-.73.98-1.14.59-.81.74-1.3.24-.97.24-1.49c0-.61-.07-.61-.07-1.23s.02-.61.02-1.23c0-.1-.08-.16,0-.24.37-.22.68-.52.92-.88s.42-.75.55-1.15c.14-.43.26-.87.32-1.25.11-.73.57-.83.09-1.26-.59-.52-.6.02-1.55.02-.45,0-.98,0-1.56,0-.49,0-1.02-.04-1.56-.04s-1.04.06-1.57.06-1.06-.02-1.57-.02c-.56,0-1.06.03-1.46.21-.49.21-.84.58-1.14.93-.34.4-.58.85-.74,1.27-.28.77-.34.7-.36,1.43,0,.39.06.4.06.79,0,.64,0,.64,0,1.28s.05.64.04,1.28c0,.02-.05.01-.05.03Z"/><path class="cls-7" d="m4.77,26.24c.76,0,.76.02,1.51.02s.76-.07,1.51-.07.76.04,1.51.04.76-.04,1.51-.04.76.05,1.52.05.76-.03,1.52-.03"/><path class="cls-6" d="m44.09,56.5c.71,0,.71-.03,1.42-.03s.71-.15,1.42-.15.71.06,1.42.06.71.06,1.42.06.71,0,1.42,0,.71-.12,1.43-.12.71-.01,1.43-.01c.45,0,.86-.04,1.22-.25s.75-.48.96-.85.21-.81.21-1.26c0-.62.16-.62.16-1.25s-.11-.62-.11-1.25c0-.75.06-.75.06-1.5s-.05-.75-.05-1.51.02-.75.02-1.5-.08-.75-.08-1.5.12-.75.12-1.51-.04-.75-.04-1.5-.03-.75-.03-1.51-.09-.76-.09-1.51.16-.76.16-1.51c0-.66-.11-.55-.36-1.27-.13-.37-.28-.79-.56-1.18-.24-.33-.53-.66-.92-.94-.32-.24-.71-.43-1.17-.61-.38-.14-.79-.27-1.27-.34-.4-.06-.84-.08-1.32-.08-.71,0-.6,0-1.4.16-.42.09-.91.15-1.39.34-.43.17-.87.4-1.26.69s-.62.7-.88,1.12c-.23.38-.42.87-.51,1.38-.77.23-.82-.06-1.62-.06s-.8-.02-1.6-.02-.8.11-1.61.11-.8-.02-1.61-.02-.79-.07-1.58-.04-.73.11-1.31.63c-.32.29-.56.65-.56,1.29,0,.54.2.96.56,1.32s.78.69,1.32.69c.7,0,.7-.13,1.4-.13s.7.18,1.4.18.7-.12,1.4-.12.7.07,1.4.07.7.04,1.4.04.7-.04,1.41-.04.7-.04,1.41-.04.7-.13,1.41-.13c.45,0,.81-.09,1.17-.3s.8-.4,1.01-.77.3-.81.3-1.26c0-.17.06-.17.06-.33"/><path class="cls-6" d="m39.07,41c0-.69,0-.69,0-1.38s0-.69,0-1.38-.02-.69-.02-1.38"/><path class="cls-6" d="m45.46,51.66q0-.68,0-1.36c0-.68.02-.68.02-1.36s-.04-.68-.04-1.36.03-.68.03-1.36,0-.68,0-1.36.06-.68.06-1.36c0-.68-.05-.68-.05-1.36s-.04-.68-.04-1.36"/><path class="cls-6" d="m38.84,57.01c0-.77.06-.77.06-1.54s.03-.77.03-1.54c0-.45.07-.87.28-1.23s.58-.61.95-.83.74-.3,1.19-.3c.69,0,.69-.07,1.38-.07s.69.04,1.37.04.69-.04,1.37-.04.69,0,1.38,0,.69-.02,1.37-.02c.69,0,.69.08,1.38.08s.69-.11,1.38-.11.69,0,1.38,0,.69.09,1.38.09.69.04,1.38.04.69-.11,1.38-.11"/><path class="cls-7" d="m55.72,28.65c0,.52,0,1.03-.15,1.5s-.45.91-.75,1.31-.63.79-1.04,1.09-.86.54-1.34.7-.98.14-1.5.14-1.02,0-1.49-.16-.92-.42-1.32-.71-.73-.68-1.03-1.08-.54-.83-.69-1.32-.23-.96-.23-1.47c0-.61-.05-.61-.05-1.23s.06-.61.06-1.23c0-.1.02-.13-.05-.21-.37-.22-.63-.56-.87-.92s-.42-.74-.55-1.15c-.14-.43-.32-.85-.38-1.24-.11-.73-.5-.82-.02-1.24.59-.52.58-.07,1.53-.07.45,0,.98.06,1.56.06.49,0,1.02.01,1.56.01s1.04-.09,1.57-.09,1.06.05,1.57.05c.56,0,1.04.09,1.44.27.49.21.83.56,1.12.92.34.4.56.84.72,1.27.28.77.29.68.31,1.42,0,.39.08.39.08.79,0,.64.01.64.01,1.28s0,.64-.02,1.28c0,.02-.05.01-.05.03Z"/><path class="cls-7" d="m55.23,26.25c-.76,0-.76-.03-1.51-.03-.76,0-.76-.03-1.51-.03s-.76.04-1.51.04-.76-.01-1.51-.01-.76,0-1.52,0-.76,0-1.52,0"/><path class="cls-6" d="m32.78,57.01c0-.75.02-.75.02-1.51s-.04-.75-.04-1.51.03-.75.03-1.51.02-.76.02-1.51-.02-.76-.02-1.51,0-.76,0-1.51"/><path class="cls-6" d="m27.28,57.01c0-.75,0-.75,0-1.51s-.04-.75-.04-1.51-.02-.75-.02-1.51.04-.76.04-1.51-.03-.76-.03-1.51.05-.76.05-1.51"/><path class="cls-6" d="m14.54,44.26c.7,0,.7.23,1.4.23s.7-.1,1.4-.1.7,0,1.4,0,.7-.01,1.41-.01.7.14,1.41.14.7-.1,1.41-.1.7-.19,1.41-.19.7.03,1.41.03.7.13,1.41.13.7-.06,1.41-.06.7.17,1.41.17.7-.16,1.41-.16.7.09,1.4.09.7-.13,1.4-.13.7.16,1.41.16.7-.16,1.41-.16.7.1,1.41.1.71.1,1.41.1.7-.01,1.41-.01.71-.09,1.41-.09.71.02,1.41.02.71-.1,1.41-.1"/><path class="cls-6" d="m14.54,48.01c.7,0,.7.04,1.4.04s.7-.23,1.4-.23.7.25,1.4.25.7-.07,1.41-.07.7-.17,1.41-.17.7.29,1.41.29.7-.07,1.41-.07.7-.13,1.41-.13.7-.03,1.41-.03.7-.01,1.41-.01.7.01,1.41.01.7.13,1.41.13.7-.11,1.4-.11.7-.06,1.4-.06.7.06,1.41.06.7.14,1.41.14.7-.19,1.41-.19.71-.03,1.41-.03.7.26,1.41.26.71-.2,1.41-.2.71.16,1.41.16.71-.16,1.41-.16"/><path class="cls-6" d="m37.47,33.16c.64-.56-.07-.88-.07-1.73s-.44-1,0-1.73c.27-.44.56.09,1.08.09.45,0,.88-.16,1.24-.37s.63-.57.85-.95.3-.76.3-1.21c0-.75.15-.75.15-1.49s-.09-.75-.09-1.5.08-.75.08-1.5-.12-.75-.12-1.5c0-.45-.03-.9-.24-1.26s-.6-.62-.97-.83-.76-.28-1.21-.28c-.74,0-.74-.1-1.48-.1-.74,0-.74-.07-1.48-.07-.74,0-.74,0-1.48,0s-.74.14-1.48.14-.74,0-1.48,0-.74-.08-1.48-.08c-.74,0-.74.03-1.49.03-.74,0-.74-.08-1.49-.08s-.74.06-1.49.06c-.45,0-.9.08-1.27.29s-.64.59-.86.97-.27.78-.27,1.23c0,.75-.06.75-.06,1.49s-.06.75-.06,1.5-.03.75-.03,1.5.13.75.13,1.5c0,.45.05.89.26,1.25s.53.71.91.93.81.35,1.26.35c.71,0,.71-.13,1.41-.13s.71.04,1.42.04.71.09,1.41.09.71-.05,1.42-.05.71.08,1.42.08.74-.3,1.41-.06c.6.21.48.4.96.83s.47.43.95.86.62.31.98.84c.43.63.5,1.31.98.89Z"/><path class="cls-6" d="m28.76,22.52c.67,0,.67,0,1.34,0s.67,0,1.34,0,.67-.02,1.34-.02.67-.02,1.34-.02.67-.02,1.35-.02.67.03,1.35.03.67.02,1.35.02"/><path class="cls-6" d="m38.16,26.01c-.88,0-.88-.01-1.75-.01s-.88,0-1.75,0"/><path class="cls-6" d="m31.79,26c-.78,0-.78.02-1.57.02s-.79-.05-1.57-.05-.79.04-1.58.04-.79-.05-1.58-.05"/><path class="cls-6" d="m19.17,17.45c-.64-.56.04-.88.04-1.73s.41-.96-.03-1.69c-.27-.44-.5-.05-1.01-.05-.45,0-.85-.1-1.22-.31s-.62-.55-.83-.92-.48-.73-.48-1.18c0-.75.04-.75.04-1.49s-.05-.75-.05-1.5.11-.75.11-1.5.05-.75.05-1.5c0-.45.14-.81.35-1.17s.44-.72.82-.93.77-.36,1.22-.36c.73,0,.73.08,1.45.08s.73-.11,1.46-.11.73.08,1.46.08.73-.02,1.46-.02.73.07,1.45.07.73-.15,1.45-.15.73.04,1.46.04.73-.09,1.46-.09.73.11,1.46.11.73-.13,1.46-.13.73.15,1.46.15.73-.08,1.46-.08.73.18,1.46.18.73-.13,1.46-.13c.45,0,.9.08,1.26.29s.71.55.92.92.24.81.24,1.26c0,.75-.05.75-.05,1.49s.04.75.04,1.5-.02.75-.02,1.5-.04.75-.04,1.5c0,.45-.01.87-.22,1.24s-.53.68-.91.9-.79.27-1.23.27c-.71,0-.71.05-1.41.05-.7,0-.7-.03-1.41-.03s-.7.05-1.41.05-.71.06-1.41.06-.71-.11-1.41-.11-.71.12-1.41.12-.71-.15-1.41-.15-.71.12-1.41.12-.71-.09-1.42-.09-.71.08-1.42.08-.73-.24-1.4,0c-.6.21-.49.38-.97.8s-.49.42-.96.84-.51.38-.87.91c-.43.63-.59,1.25-1.07.83Z"/><path class="cls-6" d="m38.02,6.96c-.71,0-.71.09-1.43.09s-.71-.03-1.43-.03-.71-.07-1.42-.07-.71.12-1.42.12-.71-.12-1.43-.12-.71.11-1.43.11-.71-.06-1.43-.06-.71-.06-1.43-.06-.71.15-1.43.15-.71-.08-1.43-.08-.72.04-1.43.04-.72.03-1.43.03"/><path class="cls-6" d="m19.43,10.53c.74,0,.74,0,1.48,0s.74-.02,1.48-.02.74.05,1.48.05.74,0,1.48,0,.74.02,1.48.02.74-.05,1.49-.05.74,0,1.49,0,.74-.02,1.49-.02"/><path class="cls-6" d="m34.66,10.51c.86,0,.86.02,1.72.02s.86,0,1.72,0"/><path class="cls-5" d="m32.92,44.07c0-1.01-.59-1.18-.04-2.02.37-.56.68.03,1.35.03s.67-.06,1.34-.06.67.03,1.34.03.67,0,1.34,0,.67.02,1.34.02.82-.43,1.33.01c.44.38.03.56.03,1.15s.02.58.02,1.17"/><path class="cls-5" d="m19.11,44.07c0-1.01-.51-1.15.05-1.99.37-.56.64-.04,1.31-.04s.67.05,1.34.05.67-.01,1.34-.01.67.02,1.34.02.67,0,1.34,0,.84-.47,1.34-.03c.44.38-.04.58-.04,1.17s.04.58.04,1.17"/></g></g></svg>